<svg aria-hidden="true" style="position: absolute; width: 0; height: 0; overflow: hidden;" version="1.1" xmlns="http://www.w3.org/2000/svg" xmlns:xlink="http://www.w3.org/1999/xlink">
<defs>
<symbol id="feature-icon" viewBox="0 0 32 32">
<path d="M31.665 19.769c-0.203-0.081-0.436-0.030-0.587 0.128l-2.278 2.394v-14.22h0.003l2.173-2.346c0.2-0.216 0.187-0.554-0.030-0.754l-0-0-0.782-0.728 1.087-1.173c0.2-0.216 0.186-0.554-0.030-0.753l-2.347-2.173c-0.216-0.2-0.553-0.187-0.753 0.029l-3.792 4.094h-18.462c-0.002-1.472-1.195-2.665-2.667-2.667h-0.533c-1.472 0.002-2.665 1.195-2.667 2.667v22.932c0 0.294 0.239 0.533 0.533 0.533h8.073l-1.12 1.345c-0.188 0.227-0.157 0.563 0.069 0.751l2.459 2.047c0.226 0.189 0.563 0.158 0.751-0.069l0-0 2.73-3.279c0.188-0.227 0.31-0.503 0.35-0.795h9.773l-3.205 3.366c-0.203 0.213-0.194 0.551 0.019 0.754 0.099 0.094 0.231 0.147 0.368 0.147h10.666c0.295 0 0.533-0.239 0.533-0.533v-11.199c0-0.218-0.133-0.415-0.335-0.496zM29.831 5.385l-1.031 1.115v-0.784l0.64-0.693 0.391 0.363zM27.733 5.298l-4.511 4.874-1.566-1.449 5.434-5.872 1.566 1.449-0.917 0.99h-0.006v0.008zM22.198 10.676l-1.227 0.358 0.262-1.251 0.965 0.893zM30.105 2.734l-0.725 0.784-1.566-1.45 0.725-0.783 1.566 1.448zM2.667 2.665h0.533c0.884 0 1.6 0.716 1.6 1.6v20.279c-0.459-0.353-1.021-0.545-1.6-0.547h-0.533c-0.579 0.002-1.141 0.194-1.6 0.547v-20.279c0-0.884 0.716-1.6 1.6-1.6zM3.2 25.064c0.884 0 1.6 0.717 1.6 1.6h-3.733c0-0.883 0.716-1.6 1.6-1.6h0.533zM12.677 27.843l-0.341 0.41-1.639-1.365 0.341-0.41c0.188-0.226 0.525-0.257 0.751-0.069 0 0 0 0 0.001 0l0.82 0.681c0.227 0.188 0.258 0.524 0.069 0.751l-0 0v0.002zM8.648 29.348l1.365-1.64 1.639 1.365-1.365 1.64-1.64-1.365zM13.622 26.664c-0.089-0.148-0.201-0.28-0.332-0.391l-0.82-0.682c-0.679-0.565-1.688-0.473-2.253 0.206l-0.724 0.868h-3.627v-21.332h17.475l-2.83 3.058c-0.041 0.046-0.073 0.098-0.095 0.155-0.006 0.015-0.011 0.030-0.017 0.046-0.002 0.006-0.004 0.012-0.007 0.018-0.004 0.010-0.008 0.020-0.010 0.031l-0.637 3.044c-0.060 0.288 0.125 0.571 0.413 0.631 0.086 0.018 0.174 0.014 0.258-0.010l2.987-0.87c0.007-0.002 0.014-0.006 0.021-0.009s0.012-0.006 0.018-0.008c0.013-0.005 0.027-0.012 0.042-0.019 0.060-0.027 0.114-0.065 0.16-0.113l4.089-4.418v16.542l-3.099 3.253h-11.013zM22.044 30.93l8.889-9.333v9.333h-8.889zM25.6 29.863c-0.216 0-0.41-0.13-0.493-0.329s-0.037-0.429 0.116-0.581l3.733-3.733c0.1-0.1 0.236-0.156 0.377-0.156 0.294 0 0.534 0.238 0.534 0.533v3.733c0 0.294-0.239 0.533-0.534 0.533h-3.733zM28.8 28.797v-1.912l-1.913 1.912h1.913zM19.733 20.264v-5.866c-0.001-0.142-0.057-0.277-0.157-0.378l-3.2-3.2c-0.208-0.208-0.546-0.208-0.754 0l-3.2 3.2c-0.099 0.101-0.155 0.236-0.156 0.378v5.866h-3.733c-0.295 0-0.533 0.239-0.533 0.533s0.239 0.533 0.533 0.533h14.933c0.294 0 0.533-0.239 0.533-0.533s-0.239-0.533-0.533-0.533h-3.733zM17.913 13.864h-3.825l1.913-1.912 1.913 1.912zM13.333 14.931h5.334v5.333h-5.334v-5.333zM15.466 8.532v1.067h1.067v-1.067h-1.067zM16.533 22.397v1.067h-1.067v-1.067h1.067z"></path>
</symbol>
</defs>
</svg>
